#!OML:ASF F:\VICON\USERDATA\INSTALL\rory3\rory3.ASF
:FULLY-SPECIFIED
:DEGREES
347
root 0.565658 17.7605 5.37553 0.57504 1.9129 -0.140917
lowerback 6.35644 -0.0108989 -0.995886
upperback -1.41932 0.0210801 2.39177
thorax -5.04508 0.0786443 3.04546
lowerneck -18.1887 -4.85695 -10.0351
upperneck 26.0653 -5.77112 6.69577
head 12.1045 -2.73831 3.29883
rclavicle -2.90101e-015 -1.35174e-014
rhumerus -43.2892 -6.90574 -77.1407
rradius 38.0467
rwrist 0.144834
rhand -17.1398 14.3225
rfingers 7.12502
rthumb 9.10042 -15.4611
lclavicle -2.90101e-015 -1.35174e-014
lhumerus -44.7057 2.55687 88.5512
lradius 37.4081
lwrist 0.0700826
lhand -20.8465 19.9774
lfingers 7.12502
lthumb 5.52257 49.8854
rfemur -8.15563 4.29526 21.9021
rtibia 21.9946
rfoot -8.32318 -8.68927
rtoes 8.8998
lfemur -11.6275 -3.70891 -21.3044
ltibia 21.2848
lfoot -7.33083 1.518
ltoes 6.0249
348
root 0.564361 17.7679 5.39443 0.759949 1.84338 -0.143206
lowerback 6.55344 -0.0061696 -0.870173
upperback -1.59869 0.0395889 2.35825
thorax -5.34562 0.0883306 2.94082
lowerneck -18.3673 -4.93191 -10.0187
upperneck 26.0445 -5.87952 6.7424
head 12.1445 -2.77569 3.29333
rclavicle -3.99433e-015 -1.35174e-014
rhumerus -43.532 -6.33719 -77.449
rradius 38.6906
rwrist 0.16255
rhand -16.9402 13.9017
rfingers 7.12502
rthumb 9.29303 -15.8734
lclavicle -3.99433e-015 -1.35174e-014
lhumerus -44.946 1.9329 88.5333
lradius 37.9601
lwrist 0.137502
lhand -20.4798 21.5433
lfingers 7.12502
lthumb 5.87659 51.4418
rfemur -8.1234 4.08892 21.8772
rtibia 21.6553
rfoot -8.25243 -8.4642
rtoes 7.81558
lfemur -11.5719 -3.70555 -21.2783
ltibia 20.9723
lfoot -7.47839 1.57487
ltoes 4.83506
349
root 0.562386 17.7735 5.41089 1.03485 1.64194 -0.0507057
lowerback 6.64296 0.00998027 -0.8568
upperback -1.73869 0.0626963 2.3188
thorax -5.54462 0.101994 2.89157
lowerneck -18.5592 -4.97334 -10.0304
upperneck 25.8405 -5.91228 6.76687
head 12.1078 -2.78333 3.2927
rclavicle 2.73329e-016 -1.66979e-014
rhumerus -43.6831 -5.51347 -77.8578
rradius 39.46
rwrist -0.0201187
rhand -17.1113 13.8055
rfingers 7.12502
rthumb 9.12795 -15.9769
lclavicle 2.73329e-016 -1.66979e-014
lhumerus -44.9776 1.54011 88.436
lradius 38.4397
lwrist 0.24144
lhand -21.1875 16.7894
lfingers 7.12502
lthumb 5.19332 46.7058
rfemur -8.27944 3.82004 21.7384
rtibia 21.4256
rfoot -8.18849 -8.0791
rtoes 6.91661
lfemur -11.6268 -3.63019 -21.3509
ltibia 20.6856
lfoot -7.5063 1.67332
ltoes 4.32425
350
root 0.55868 17.7778 5.43371 1.26614 1.43421 0.0481537
lowerback 6.53136 -0.0166665 -0.961689
upperback -1.75767 0.0192739 2.34492
thorax -5.4988 0.0841932 2.98237
lowerneck -18.8694 -4.94035 -10.0273
upperneck 25.7122 -5.82192 6.75177
head 12.1101 -2.73774 3.29544
rclavicle -6.60959e-015 -8.74653e-015
rhumerus -43.2167 -4.81716 -78.1545
rradius 39.4618
rwrist 0.196578
rhand -17.6909 14.5077
rfingers 7.12502
rthumb 8.56863 -15.2985
lclavicle -6.60959e-015 -8.74653e-015
lhumerus -44.7685 1.42119 88.2785
lradius 38.7631
lwrist 0.373853
lhand -20.3121 19.4526
lfingers 7.12502
lthumb 6.03847 49.3465
rfemur -8.46257 3.62924 21.6043
rtibia 21.3384
rfoot -8.20256 -7.7315
rtoes 6.64003
lfemur -11.6142 -3.56714 -21.4263
ltibia 20.3666
lfoot -7.35545 1.76384
ltoes 4.83721
351
root 0.552436 17.7769 5.46212 1.33242 1.2768 0.146317
lowerback 6.51868 -0.0432757 -1.08327
upperback -1.8085 -0.0259386 2.34852
thorax -5.54244 0.0670071 3.0604
lowerneck -18.9228 -4.87916 -10.0247
upperneck 25.6476 -5.73696 6.78766
head 12.0876 -2.69372 3.32119
rclavicle -1.03492e-014 1.35174e-014
rhumerus -42.7344 -4.53255 -78.2845
rradius 38.992
rwrist 0.645577
rhand -18.4872 15.1087
rfingers 7.12502
rthumb 7.80013 -14.7274
lclavicle -1.03492e-014 1.35174e-014
lhumerus -44.6523 1.29391 88.0237
lradius 38.863
lwrist 0.423113
lhand -20.2926 17.6194
lfingers 7.12502
lthumb 6.05731 47.5128
rfemur -8.51676 3.49039 21.4955
rtibia 21.3696
rfoot -8.29891 -7.48547
rtoes 6.55939
lfemur -11.3703 -3.48757 -21.5123
ltibia 20.0232
lfoot -7.35386 1.83111
ltoes 5.13957
352
root 0.543344 17.7775 5.48738 1.38374 1.10381 0.311258
lowerback 6.52576 -0.0363209 -1.29131
upperback -1.90049 -0.0347384 2.32594
thorax -5.64286 0.0716106 3.15652
lowerneck -18.6058 -4.82158 -10.0926
upperneck 25.4196 -5.69334 6.91921
head 11.9371 -2.66903 3.38882
rclavicle -7.56003e-015 7.95139e-015
rhumerus -42.3118 -4.56068 -78.2492
rradius 38.5378
rwrist 0.977762
rhand -18.7407 15.3927
rfingers 7.12502
rthumb 7.55542 -14.4523
lclavicle -7.56003e-015 7.95139e-015
lhumerus -44.6403 1.14835 87.7509
lradius 38.9884
lwrist 0.376219
lhand -19.6033 19.3037
lfingers 7.12502
lthumb 6.72281 49.1769
rfemur -8.57624 3.44921 21.3294
rtibia 21.4539
rfoot -8.4057 -7.31186
rtoes 6.18889
lfemur -11.1276 -3.49342 -21.6651
ltibia 19.7116
lfoot -7.40862 2.0228
ltoes 4.85525
353
root 0.537773 17.7798 5.50967 1.54218 1.03292 0.465878
lowerback 6.44011 -0.0590544 -1.43802
upperback -1.97432 -0.0774426 2.31396
thorax -5.66897 0.0565616 3.23178
lowerneck -18.489 -4.82677 -10.1036
upperneck 25.2882 -5.68757 6.86647
head 11.861 -2.67564 3.36984
rclavicle 3.68683e-015 -8.74653e-015
rhumerus -41.7627 -5.01101 -78.004
rradius 38.1995
rwrist 1.66236
rhand -18.6738 16.4113
rfingers 7.12502
rthumb 7.61998 -13.4314
lclavicle 3.68683e-015 -8.74653e-015
lhumerus -44.549 1.04151 87.485
lradius 39.3297
lwrist 0.222189
lhand -19.3942 20.0346
lfingers 7.12502
lthumb 6.92462 49.9014
rfemur -8.71019 3.30472 21.155
rtibia 21.574
rfoot -8.65008 -7.09517
rtoes 6.08609
lfemur -11.0748 -3.47504 -21.8253
ltibia 19.4644
lfoot -7.4004 2.10608
ltoes 4.44056
354
root 0.532089 17.7811 5.52433 1.68442 0.90846 0.590119
lowerback 6.6041 -0.106982 -1.53764
upperback -2.09786 -0.150466 2.29851
thorax -5.8878 0.0282686 3.28361
lowerneck -18.6605 -4.81814 -10.0667
upperneck 25.4013 -5.62792 6.70522
head 11.9268 -2.66349 3.31238
rclavicle 1.69153e-014 -1.98785e-014
rhumerus -41.2766 -5.3648 -77.8342
rradius 37.9192
rwrist 2.34838
rhand -18.5553 18.047
rfingers 7.12502
rthumb 7.73439 -11.7915
lclavicle 1.69153e-014 -1.98785e-014
lhumerus -44.3525 1.23104 86.9933
lradius 39.3828
lwrist -0.183026
lhand -19.1336 19.5214
lfingers 7.12502
lthumb 7.17623 49.3797
rfemur -8.89869 3.24383 21.028
rtibia 21.7446
rfoot -8.76966 -6.97493
rtoes 5.75033
lfemur -11.0291 -3.43259 -21.9459
ltibia 19.2357
lfoot -7.37843 2.18134
ltoes 4.41173
